<svg width="134" height="46" viewBox="0 0 134 46" fill="none" xmlns="http://www.w3.org/2000/svg">
<path d="M15.9 32.8C15.4 32.8 15.0833 32.6333 14.95 32.3C14.8833 32.1 14.85 31.7167 14.85 31.15C14.85 28.4833 15.8833 24.5833 17.95 19.45C19.6833 15.2167 21.5 11.5333 23.4 8.4C19.6 6.56667 16 5.65 12.6 5.65C8.43333 5.65 5.31667 7.33333 3.25 10.7C2.38333 12.1667 1.95 13.6 1.95 15C1.95 16.8333 2.65 18.2333 4.05 19.2C4.68333 19.6333 5.38333 19.9667 6.15 20.2C6.95 20.4333 7.81667 20.5333 8.75 20.5L9.7 20.45H10.7C11.2333 20.45 11.5 20.6 11.5 20.9C11.5 21.2 11.2667 21.3833 10.8 21.45C9.56667 21.65 8.65 21.75 8.05 21.75C5.88333 21.75 4.03333 21.1333 2.5 19.9C0.866667 18.6 0.05 16.8833 0.05 14.75C0.05 12.85 0.7 10.95 2 9.05C4.26667 5.78333 7.68333 4.15 12.25 4.15C13.9167 4.15 15.5333 4.31667 17.1 4.65C18.7 4.95 20.25 5.46667 21.75 6.2L24.05 7.3C24.65 6.33333 25.2667 5.85 25.9 5.85C26.7333 5.85 27.15 6.3 27.15 7.2C27.15 7.53333 27.0333 7.7 26.8 7.7C26.7333 7.7 26.6333 7.63333 26.5 7.5C26.3667 7.36666 26.2167 7.3 26.05 7.3C25.85 7.3 25.6333 7.51667 25.4 7.95C29.0333 9.61667 31.8167 10.45 33.75 10.45C35.5167 10.45 36.4 9.93333 36.4 8.9C36.4 8.6 36.2 8.23333 35.8 7.8C35.3667 7.36667 35.15 7.08333 35.15 6.95C35.15 6.78333 35.2833 6.7 35.55 6.7C35.75 6.7 36.1167 6.93333 36.65 7.4C37.35 8.03333 37.7 8.71667 37.7 9.45C37.7 10.2833 37.2333 10.9167 36.3 11.35C35.5 11.7167 34.6667 11.9 33.8 11.9C31.2 11.9 28.1667 10.9167 24.7 8.95C24.5 9.28333 24.2333 9.8 23.9 10.5C23.5667 11.2 23.1667 12.0833 22.7 13.15C20.3333 18.4167 18.6333 22.9833 17.6 26.85C17.1333 28.65 16.9 29.9167 16.9 30.65C16.9 30.8167 16.9333 30.9 17 30.9C17.0333 30.9 17.2333 30.7667 17.6 30.5C17.9333 30.2667 18.15 30.15 18.25 30.15C18.4833 30.15 18.6 30.2333 18.6 30.4C18.6 30.7 18.2167 31.2833 17.45 32.15C17.05 32.5833 16.5333 32.8 15.9 32.8ZM28.0379 31.35C27.7379 31.35 27.5879 31.1333 27.5879 30.7C27.5879 29.5667 28.2046 27.45 29.4379 24.35C28.7046 25.6833 27.8546 27.0333 26.8879 28.4C25.4879 30.3333 24.4046 31.3 23.6379 31.3C22.5712 31.3 22.0379 30.55 22.0379 29.05C22.0379 27.4833 22.7379 25.4333 24.1379 22.9C24.7712 21.7333 25.7379 20.5 27.0379 19.2C28.5712 17.6667 29.8546 16.9 30.8879 16.9C31.7212 16.9 32.1379 17.2333 32.1379 17.9C32.1379 18.1667 32.0546 18.5167 31.8879 18.95C31.7546 19.3833 31.5879 19.6 31.3879 19.6C31.3546 19.6 31.2546 19.45 31.0879 19.15C30.9212 18.8833 30.7379 18.75 30.5379 18.75C29.8379 18.75 28.8879 19.4333 27.6879 20.8C25.9879 22.7333 24.8046 24.65 24.1379 26.55C23.6379 27.8833 23.3879 28.95 23.3879 29.75C23.3879 30.2167 23.5046 30.45 23.7379 30.45C24.2712 30.45 25.5046 29 27.4379 26.1C28.3712 24.7333 29.1212 23.6 29.6879 22.7C30.2546 21.7667 30.6212 21.0833 30.7879 20.65C30.8879 20.3833 31.1546 20.05 31.5879 19.65C32.0546 19.2167 32.4046 19 32.6379 19C32.7712 19 32.8379 19.1 32.8379 19.3C32.8379 19.5 32.7379 19.85 32.5379 20.35C30.4046 25.55 29.3379 28.5667 29.3379 29.4C29.3379 29.7 29.4046 29.85 29.5379 29.85C29.6379 29.85 29.9546 29.5833 30.4879 29.05C31.0212 28.5167 31.3546 28.25 31.4879 28.25C31.6212 28.25 31.6879 28.35 31.6879 28.55C31.6879 28.8167 31.4379 29.1833 30.9379 29.65C30.4712 30.0833 29.9379 30.4833 29.3379 30.85C28.7712 31.1833 28.3379 31.35 28.0379 31.35ZM33.473 32.3C31.873 32.3 31.073 31.8 31.073 30.8C31.073 30.1333 31.5064 29.5167 32.373 28.95C32.973 28.5833 33.723 28.3167 34.623 28.15C35.2564 28.0167 35.823 27.9 36.323 27.8C36.823 27.7 37.2564 27.5833 37.623 27.45L39.273 26.9C39.3064 26.8 39.323 26.7 39.323 26.6C39.3564 26.5 39.373 26.4 39.373 26.3C39.373 25.5333 38.923 24.4333 38.023 23C37.0897 21.5667 36.623 20.5167 36.623 19.85C36.623 19.05 36.8897 18.3167 37.423 17.65C37.9564 16.9833 38.623 16.45 39.423 16.05C40.2564 15.6167 41.073 15.4 41.873 15.4C43.2064 15.4 43.873 15.85 43.873 16.75C43.873 17.8833 43.5397 18.45 42.873 18.45C42.6064 18.45 42.4397 18.1667 42.373 17.6C42.3397 17.0667 42.173 16.8 41.873 16.8C41.5064 16.8 41.0897 16.9833 40.623 17.35C40.1564 17.6833 39.7564 18.1 39.423 18.6C39.123 19.0667 38.973 19.5 38.973 19.9C38.973 20.2667 39.273 21.05 39.873 22.25C40.4397 23.4833 40.723 24.4 40.723 25C40.723 25.0667 40.7064 25.1667 40.673 25.3C40.673 25.4 40.6564 25.5333 40.623 25.7C40.5897 25.8333 40.5564 25.9667 40.523 26.1C40.523 26.2333 40.523 26.3333 40.523 26.4C40.623 26.3 40.8064 26.1667 41.073 26C41.373 25.8333 41.673 25.6833 41.973 25.55C42.273 25.3833 42.473 25.3 42.573 25.3C42.6397 25.3 42.673 25.3167 42.673 25.35C42.673 25.5167 42.523 25.7333 42.223 26C41.9564 26.2667 41.6397 26.5167 41.273 26.75C40.9397 26.9833 40.6397 27.15 40.373 27.25V27.35C40.3064 27.65 40.123 28.0333 39.823 28.5C39.523 28.9667 39.1897 29.4167 38.823 29.85C38.4564 30.2833 38.1064 30.6167 37.773 30.85C36.5064 31.8167 35.073 32.3 33.473 32.3ZM33.423 31.4C34.0897 31.4 34.7897 31.25 35.523 30.95C36.2564 30.65 36.923 30.25 37.523 29.75C38.1564 29.2167 38.6064 28.6667 38.873 28.1C38.2064 28.3333 37.5897 28.5667 37.023 28.8C36.4564 29 35.9397 29.1833 35.473 29.35C33.773 29.9833 32.923 30.5833 32.923 31.15C32.923 31.3167 33.0897 31.4 33.423 31.4ZM46.0234 31.3C44.8901 31.3 44.3234 30.6333 44.3234 29.3C44.3234 28.6 44.4568 27.7167 44.7234 26.65C45.0234 25.55 45.4734 24.2833 46.0734 22.85L48.7734 16.35C48.6401 16.35 48.4901 16.35 48.3234 16.35C48.1568 16.3167 47.9401 16.3 47.6734 16.3L46.5734 16.25C46.2068 16.25 46.0234 16.0333 46.0234 15.6C46.0234 15.4 46.3068 15.2667 46.8734 15.2L47.9734 15.1C48.3068 15.0667 48.5901 15.0333 48.8234 15C49.0901 14.9667 49.3068 14.95 49.4734 14.95C49.8401 14.05 50.3234 12.9333 50.9234 11.6C51.5568 10.2667 52.3068 8.73333 53.1734 7C54.3734 5.06666 55.5068 4.1 56.5734 4.1C56.8401 4.1 56.9734 4.21666 56.9734 4.45C56.9734 4.68333 56.1568 6.26666 54.5234 9.2C53.6568 10.8 52.9568 12.0833 52.4234 13.05C51.9234 14.0167 51.6068 14.6833 51.4734 15.05C53.9734 15.05 55.2234 15.2333 55.2234 15.6C55.2234 16.1 53.7401 16.35 50.7734 16.35C47.4068 24.35 45.7234 28.7667 45.7234 29.6C45.7234 30.1333 45.9234 30.4 46.3234 30.4C46.6568 30.4 47.2568 30.0167 48.1234 29.25C48.8901 28.5167 49.3568 28.15 49.5234 28.15C49.7234 28.15 49.8234 28.3 49.8234 28.6C49.8234 28.9333 49.5901 29.3167 49.1234 29.75C48.6568 30.1833 48.1234 30.55 47.5234 30.85C46.9234 31.15 46.4234 31.3 46.0234 31.3ZM48.8195 45.7C47.8195 45.7 47.3195 45.1167 47.3195 43.95C47.3195 42.6833 47.7529 41.1333 48.6195 39.3C49.4195 37.6333 50.3029 36.2667 51.2695 35.2C52.5362 33.8333 53.7695 32.7 54.9695 31.8C56.2029 30.9333 57.4029 30.2833 58.5695 29.85C58.6362 29.5167 58.9362 28.6 59.4695 27.1C60.0029 25.5667 60.7362 23.4333 61.6695 20.7C57.4695 27.8 54.3862 31.35 52.4195 31.35C51.8862 31.35 51.6195 31.1 51.6195 30.6C51.6195 30.0667 51.8862 28.9833 52.4195 27.35C52.9529 25.7167 53.7695 23.5167 54.8695 20.75L56.2695 17.2C56.5695 16.4667 57.0195 16.1 57.6195 16.1C57.9195 16.1 58.1862 16.2167 58.4195 16.45C58.3195 16.9167 58.0362 17.7 57.5695 18.8C57.1362 19.9 56.5362 21.3167 55.7695 23.05C54.3362 26.2167 53.6195 28.2167 53.6195 29.05C53.6195 29.3833 53.7029 29.55 53.8695 29.55C54.2362 29.55 55.3362 28.2333 57.1695 25.6C57.9362 24.4667 58.5862 23.5333 59.1195 22.8C59.6529 22.0333 60.0362 21.4333 60.2695 21C60.6029 20.4333 60.9362 19.85 61.2695 19.25C61.6362 18.6167 61.9862 17.9667 62.3195 17.3C62.8529 16.1667 63.5695 15.6 64.4695 15.6C64.8362 15.6 65.0195 15.75 65.0195 16.05C65.0195 16.25 64.2862 18.4 62.8195 22.5C62.1862 24.2667 61.6529 25.75 61.2195 26.95C60.7862 28.1167 60.4362 29 60.1695 29.6C60.4362 29.5 60.7029 29.45 60.9695 29.45C61.8695 29.45 62.3195 30.0667 62.3195 31.3C62.3195 31.8 62.2362 32.05 62.0695 32.05C61.8695 32.05 61.7362 31.7667 61.6695 31.2C61.6362 30.6 61.3362 30.3 60.7695 30.3C60.4695 30.3 60.1195 30.3833 59.7195 30.55L57.9195 35.3C57.5862 36.2 57.2195 37.0167 56.8195 37.75C56.4529 38.5167 56.0862 39.2167 55.7195 39.85C53.3862 43.75 51.0862 45.7 48.8195 45.7ZM48.7695 44.65C49.7029 44.65 51.1029 43.4667 52.9695 41.1C54.3695 39.3 56.0862 35.95 58.1195 31.05C55.6529 32.1167 53.6195 33.6667 52.0195 35.7C49.5862 38.7667 48.3695 41.4833 48.3695 43.85C48.3695 44.3833 48.5029 44.65 48.7695 44.65ZM88.0191 32.8C87.5191 32.8 87.2025 32.6333 87.0691 32.3C87.0025 32.1 86.9691 31.7167 86.9691 31.15C86.9691 28.4833 88.0025 24.5833 90.0691 19.45C91.8025 15.2167 93.6191 11.5333 95.5191 8.4C91.7191 6.56667 88.1191 5.65 84.7191 5.65C80.5525 5.65 77.4358 7.33333 75.3691 10.7C74.5025 12.1667 74.0691 13.6 74.0691 15C74.0691 16.8333 74.7691 18.2333 76.1691 19.2C76.8025 19.6333 77.5025 19.9667 78.2691 20.2C79.0691 20.4333 79.9358 20.5333 80.8691 20.5L81.8191 20.45H82.8191C83.3525 20.45 83.6191 20.6 83.6191 20.9C83.6191 21.2 83.3858 21.3833 82.9191 21.45C81.6858 21.65 80.7691 21.75 80.1691 21.75C78.0025 21.75 76.1525 21.1333 74.6191 19.9C72.9858 18.6 72.1691 16.8833 72.1691 14.75C72.1691 12.85 72.8191 10.95 74.1191 9.05C76.3858 5.78333 79.8025 4.15 84.3691 4.15C86.0358 4.15 87.6525 4.31667 89.2191 4.65C90.8191 4.95 92.3691 5.46667 93.8691 6.2L96.1691 7.3C96.7691 6.33333 97.3858 5.85 98.0191 5.85C98.8525 5.85 99.2691 6.3 99.2691 7.2C99.2691 7.53333 99.1525 7.7 98.9191 7.7C98.8525 7.7 98.7525 7.63333 98.6191 7.5C98.4858 7.36666 98.3358 7.3 98.1691 7.3C97.9691 7.3 97.7525 7.51667 97.5191 7.95C101.152 9.61667 103.936 10.45 105.869 10.45C107.636 10.45 108.519 9.93333 108.519 8.9C108.519 8.6 108.319 8.23333 107.919 7.8C107.486 7.36667 107.269 7.08333 107.269 6.95C107.269 6.78333 107.402 6.7 107.669 6.7C107.869 6.7 108.236 6.93333 108.769 7.4C109.469 8.03333 109.819 8.71667 109.819 9.45C109.819 10.2833 109.352 10.9167 108.419 11.35C107.619 11.7167 106.786 11.9 105.919 11.9C103.319 11.9 100.286 10.9167 96.8191 8.95C96.6191 9.28333 96.3525 9.8 96.0191 10.5C95.6858 11.2 95.2858 12.0833 94.8191 13.15C92.4525 18.4167 90.7525 22.9833 89.7191 26.85C89.2525 28.65 89.0191 29.9167 89.0191 30.65C89.0191 30.8167 89.0525 30.9 89.1191 30.9C89.1525 30.9 89.3525 30.7667 89.7191 30.5C90.0525 30.2667 90.2691 30.15 90.3691 30.15C90.6025 30.15 90.7191 30.2333 90.7191 30.4C90.7191 30.7 90.3358 31.2833 89.5691 32.15C89.1691 32.5833 88.6525 32.8 88.0191 32.8ZM100.157 31.35C99.857 31.35 99.707 31.1333 99.707 30.7C99.707 29.5667 100.324 27.45 101.557 24.35C100.824 25.6833 99.9737 27.0333 99.007 28.4C97.607 30.3333 96.5237 31.3 95.757 31.3C94.6904 31.3 94.157 30.55 94.157 29.05C94.157 27.4833 94.857 25.4333 96.257 22.9C96.8904 21.7333 97.857 20.5 99.157 19.2C100.69 17.6667 101.974 16.9 103.007 16.9C103.84 16.9 104.257 17.2333 104.257 17.9C104.257 18.1667 104.174 18.5167 104.007 18.95C103.874 19.3833 103.707 19.6 103.507 19.6C103.474 19.6 103.374 19.45 103.207 19.15C103.04 18.8833 102.857 18.75 102.657 18.75C101.957 18.75 101.007 19.4333 99.807 20.8C98.107 22.7333 96.9237 24.65 96.257 26.55C95.757 27.8833 95.507 28.95 95.507 29.75C95.507 30.2167 95.6237 30.45 95.857 30.45C96.3904 30.45 97.6237 29 99.557 26.1C100.49 24.7333 101.24 23.6 101.807 22.7C102.374 21.7667 102.74 21.0833 102.907 20.65C103.007 20.3833 103.274 20.05 103.707 19.65C104.174 19.2167 104.524 19 104.757 19C104.89 19 104.957 19.1 104.957 19.3C104.957 19.5 104.857 19.85 104.657 20.35C102.524 25.55 101.457 28.5667 101.457 29.4C101.457 29.7 101.524 29.85 101.657 29.85C101.757 29.85 102.074 29.5833 102.607 29.05C103.14 28.5167 103.474 28.25 103.607 28.25C103.74 28.25 103.807 28.35 103.807 28.55C103.807 28.8167 103.557 29.1833 103.057 29.65C102.59 30.0833 102.057 30.4833 101.457 30.85C100.89 31.1833 100.457 31.35 100.157 31.35ZM106.642 31.3C105.609 31.3 105.092 30.8 105.092 29.8C105.092 28.5 105.926 25.6 107.592 21.1C108.926 17.5667 110.159 14.5 111.292 11.9C112.459 9.26667 113.559 7.08333 114.592 5.35C116.559 2.05 118.309 0.399998 119.842 0.399998C120.242 0.399998 120.559 0.466664 120.792 0.599998C121.326 0.833332 121.592 1.66667 121.592 3.1C121.592 3.96667 121.376 4.4 120.942 4.4C120.842 4.4 120.759 4.06667 120.692 3.4C120.592 2.73333 120.326 2.4 119.892 2.4C117.992 2.4 115.159 6.85 111.392 15.75C108.292 23.0833 106.742 27.8167 106.742 29.95C106.742 30.2167 106.792 30.35 106.892 30.35C107.259 30.35 108.126 29.7167 109.492 28.45L111.442 26.6C111.509 26.6 111.542 26.65 111.542 26.75C111.542 27.15 111.359 27.6167 110.992 28.15C110.659 28.65 110.226 29.15 109.692 29.65C109.192 30.1167 108.659 30.5167 108.092 30.85C107.526 31.15 107.042 31.3 106.642 31.3ZM115.62 31.5C113.82 31.5 112.92 30.35 112.92 28.05V27.8C112.92 24.6333 114.287 21.4833 117.02 18.35C118.32 16.85 119.437 16.1 120.37 16.1C120.637 16.1 120.837 16.1667 120.97 16.3C120.937 15.4 121.27 14.95 121.97 14.95C122.437 14.95 122.67 15.85 122.67 17.65C122.67 22.05 121.553 24.25 119.32 24.25C117.987 24.25 116.837 23.7667 115.87 22.8C114.837 24.9 114.32 26.8 114.32 28.5C114.32 29.8667 114.77 30.55 115.67 30.55C116.07 30.55 116.553 30.3333 117.12 29.9C117.72 29.4333 118.303 28.9167 118.87 28.35C119.437 27.75 119.903 27.2333 120.27 26.8C120.67 26.3333 120.87 26.1 120.87 26.1C121.003 26.1 121.07 26.2 121.07 26.4C121.07 26.8 120.887 27.2833 120.52 27.85C120.153 28.3833 119.687 28.9167 119.12 29.45C118.587 29.9833 118.037 30.45 117.47 30.85C116.903 31.2167 116.42 31.4333 116.02 31.5H115.62ZM118.92 23.2C119.587 23.2 120.12 22.6667 120.52 21.6C120.853 20.8 121.02 19.9667 121.02 19.1V18.3C121.02 17.9333 121.003 17.6833 120.97 17.55C120.97 17.3833 120.97 17.35 120.97 17.45C118.97 18.1833 117.437 19.6833 116.37 21.95C117.503 22.7833 118.353 23.2 118.92 23.2ZM122.829 32.3C121.229 32.3 120.429 31.8 120.429 30.8C120.429 30.1333 120.862 29.5167 121.729 28.95C122.329 28.5833 123.079 28.3167 123.979 28.15C124.612 28.0167 125.179 27.9 125.679 27.8C126.179 27.7 126.612 27.5833 126.979 27.45L128.629 26.9C128.662 26.8 128.679 26.7 128.679 26.6C128.712 26.5 128.729 26.4 128.729 26.3C128.729 25.5333 128.279 24.4333 127.379 23C126.445 21.5667 125.979 20.5167 125.979 19.85C125.979 19.05 126.245 18.3167 126.779 17.65C127.312 16.9833 127.979 16.45 128.779 16.05C129.612 15.6167 130.429 15.4 131.229 15.4C132.562 15.4 133.229 15.85 133.229 16.75C133.229 17.8833 132.895 18.45 132.229 18.45C131.962 18.45 131.795 18.1667 131.729 17.6C131.695 17.0667 131.529 16.8 131.229 16.8C130.862 16.8 130.445 16.9833 129.979 17.35C129.512 17.6833 129.112 18.1 128.779 18.6C128.479 19.0667 128.329 19.5 128.329 19.9C128.329 20.2667 128.629 21.05 129.229 22.25C129.795 23.4833 130.079 24.4 130.079 25C130.079 25.0667 130.062 25.1667 130.029 25.3C130.029 25.4 130.012 25.5333 129.979 25.7C129.945 25.8333 129.912 25.9667 129.879 26.1C129.879 26.2333 129.879 26.3333 129.879 26.4C129.979 26.3 130.162 26.1667 130.429 26C130.729 25.8333 131.029 25.6833 131.329 25.55C131.629 25.3833 131.829 25.3 131.929 25.3C131.995 25.3 132.029 25.3167 132.029 25.35C132.029 25.5167 131.879 25.7333 131.579 26C131.312 26.2667 130.995 26.5167 130.629 26.75C130.295 26.9833 129.995 27.15 129.729 27.25V27.35C129.662 27.65 129.479 28.0333 129.179 28.5C128.879 28.9667 128.545 29.4167 128.179 29.85C127.812 30.2833 127.462 30.6167 127.129 30.85C125.862 31.8167 124.429 32.3 122.829 32.3ZM122.779 31.4C123.445 31.4 124.145 31.25 124.879 30.95C125.612 30.65 126.279 30.25 126.879 29.75C127.512 29.2167 127.962 28.6667 128.229 28.1C127.562 28.3333 126.945 28.5667 126.379 28.8C125.812 29 125.295 29.1833 124.829 29.35C123.129 29.9833 122.279 30.5833 122.279 31.15C122.279 31.3167 122.445 31.4 122.779 31.4Z" fill="white"/>
</svg>
